<svg xmlns="http://www.w3.org/2000/svg" width="16" height="16"><path style="stroke:none;fill-rule:evenodd;fill-opacity:1;" fill="#8da5f3" d="M 3.625 2 L 2.101562 4.667969 L 3.625 7.332031 L 6.660156 7.332031 L 8.183594 4.667969 L 6.660156 2 Z M 9.339844 4 L 7.625 1.003906 C 7.507812 0.792969 7.285156 0.667969 7.046875 0.667969 L 3.238281 0.667969 C 3 0.667969 2.777344 0.792969 2.660156 1.003906 L 0.753906 4.335938 C 0.636719 4.539062 0.636719 4.792969 0.753906 4.996094 L 2.46875 8 L 0.753906 11.003906 C 0.636719 11.207031 0.636719 11.460938 0.753906 11.664062 L 2.660156 14.996094 C 2.777344 15.207031 3 15.332031 3.238281 15.332031 L 7.046875 15.332031 C 7.285156 15.332031 7.507812 15.207031 7.625 14.996094 L 9.339844 12 L 12.761719 12 C 13 12 13.222656 11.871094 13.339844 11.664062 L 15.246094 8.332031 C 15.363281 8.125 15.363281 7.875 15.246094 7.667969 L 13.339844 4.335938 C 13.222656 4.128906 13 4 12.761719 4 Z M 9.339844 10.667969 L 7.816406 8 L 9.339844 5.332031 L 12.375 5.332031 L 13.898438 8 L 12.375 10.667969 Z M 8.183594 11.332031 L 6.660156 8.667969 L 3.625 8.667969 L 2.101562 11.332031 L 3.625 14 L 6.660156 14 Z M 8.183594 11.332031"/></svg>